<mxfile host="app.diagrams.net" agent="Mozilla/5.0 (Windows NT 10.0; Win64; x64) AppleWebKit/537.36 (KHTML, like Gecko) Chrome/135.0.0.0 Safari/537.36 Edg/135.0.0.0" version="26.2.14">
  <diagram name="Page-1" id="sDMXGvouz4B7TGpVtS56">
    <mxGraphModel dx="3191" dy="1755" grid="0" gridSize="10" guides="1" tooltips="1" connect="1" arrows="1" fold="1" page="0" pageScale="1" pageWidth="827" pageHeight="1169" math="0" shadow="0">
      <root>
        <mxCell id="0" />
        <mxCell id="1" parent="0" />
        <mxCell id="pabbp7h-cFKbLiE3yUMI-1" value="Customer" style="whiteSpace=wrap;strokeWidth=2;" vertex="1" parent="1">
          <mxGeometry x="389" y="-171" width="128" height="54" as="geometry" />
        </mxCell>
        <mxCell id="pabbp7h-cFKbLiE3yUMI-2" value="RestroSync System" style="whiteSpace=wrap;strokeWidth=2;" vertex="1" parent="1">
          <mxGeometry x="356" y="-27" width="193" height="54" as="geometry" />
        </mxCell>
        <mxCell id="pabbp7h-cFKbLiE3yUMI-3" value="Admin" style="whiteSpace=wrap;strokeWidth=2;" vertex="1" parent="1">
          <mxGeometry x="282" y="117" width="105" height="54" as="geometry" />
        </mxCell>
        <mxCell id="pabbp7h-cFKbLiE3yUMI-4" value="Staff" style="whiteSpace=wrap;strokeWidth=2;" vertex="1" parent="1">
          <mxGeometry x="519" y="117" width="94" height="54" as="geometry" />
        </mxCell>
        <mxCell id="pabbp7h-cFKbLiE3yUMI-5" value="Place Order / Reserve / Feedback" style="curved=1;startArrow=none;endArrow=block;exitX=0.34;exitY=1;entryX=0.4;entryY=0;rounded=0;" edge="1" parent="1" source="pabbp7h-cFKbLiE3yUMI-1" target="pabbp7h-cFKbLiE3yUMI-2">
          <mxGeometry relative="1" as="geometry">
            <Array as="points">
              <mxPoint x="399" y="-72" />
            </Array>
          </mxGeometry>
        </mxCell>
        <mxCell id="pabbp7h-cFKbLiE3yUMI-6" value="Manage / Monitor / Report" style="curved=1;startArrow=none;endArrow=block;exitX=0.71;exitY=0;entryX=0.39;entryY=1;rounded=0;" edge="1" parent="1" source="pabbp7h-cFKbLiE3yUMI-3" target="pabbp7h-cFKbLiE3yUMI-2">
          <mxGeometry relative="1" as="geometry">
            <Array as="points">
              <mxPoint x="394" y="72" />
            </Array>
          </mxGeometry>
        </mxCell>
        <mxCell id="pabbp7h-cFKbLiE3yUMI-7" value="Process Orders / Update Status" style="curved=1;startArrow=none;endArrow=block;exitX=0.72;exitY=0;entryX=0.83;entryY=1;rounded=0;" edge="1" parent="1" source="pabbp7h-cFKbLiE3yUMI-4" target="pabbp7h-cFKbLiE3yUMI-2">
          <mxGeometry relative="1" as="geometry">
            <Array as="points">
              <mxPoint x="621" y="72" />
            </Array>
          </mxGeometry>
        </mxCell>
        <mxCell id="pabbp7h-cFKbLiE3yUMI-8" value="" style="curved=1;startArrow=none;endArrow=block;exitX=0.61;exitY=0;entryX=0.66;entryY=1;rounded=0;" edge="1" parent="1" source="pabbp7h-cFKbLiE3yUMI-2" target="pabbp7h-cFKbLiE3yUMI-1">
          <mxGeometry relative="1" as="geometry">
            <Array as="points">
              <mxPoint x="506" y="-72" />
            </Array>
          </mxGeometry>
        </mxCell>
        <mxCell id="pabbp7h-cFKbLiE3yUMI-9" value="" style="curved=1;startArrow=none;endArrow=block;exitX=0.16;exitY=1;entryX=0.29;entryY=0;rounded=0;" edge="1" parent="1" source="pabbp7h-cFKbLiE3yUMI-2" target="pabbp7h-cFKbLiE3yUMI-3">
          <mxGeometry relative="1" as="geometry">
            <Array as="points">
              <mxPoint x="275" y="72" />
            </Array>
          </mxGeometry>
        </mxCell>
        <mxCell id="pabbp7h-cFKbLiE3yUMI-10" value="" style="curved=1;startArrow=none;endArrow=block;exitX=0.62;exitY=1;entryX=0.29;entryY=0;rounded=0;" edge="1" parent="1" source="pabbp7h-cFKbLiE3yUMI-2" target="pabbp7h-cFKbLiE3yUMI-4">
          <mxGeometry relative="1" as="geometry">
            <Array as="points">
              <mxPoint x="512" y="72" />
            </Array>
          </mxGeometry>
        </mxCell>
        <mxCell id="pabbp7h-cFKbLiE3yUMI-11" value="RestroSync System" style="whiteSpace=wrap;strokeWidth=2;" vertex="1" parent="1">
          <mxGeometry x="-512" y="544" width="1305" height="749" as="geometry" />
        </mxCell>
        <mxCell id="pabbp7h-cFKbLiE3yUMI-12" value="" style="whiteSpace=wrap;strokeWidth=2;" vertex="1" parent="1">
          <mxGeometry x="989" y="544" width="448" height="680" as="geometry" />
        </mxCell>
        <mxCell id="pabbp7h-cFKbLiE3yUMI-13" value="Customer" style="whiteSpace=wrap;strokeWidth=2;" vertex="1" parent="1">
          <mxGeometry x="1294" y="553" width="128" height="54" as="geometry" />
        </mxCell>
        <mxCell id="pabbp7h-cFKbLiE3yUMI-14" value="Admin" style="whiteSpace=wrap;strokeWidth=2;" vertex="1" parent="1">
          <mxGeometry x="1150" y="806" width="105" height="54" as="geometry" />
        </mxCell>
        <mxCell id="pabbp7h-cFKbLiE3yUMI-15" value="Staff" style="whiteSpace=wrap;strokeWidth=2;" vertex="1" parent="1">
          <mxGeometry x="1328" y="1147" width="94" height="54" as="geometry" />
        </mxCell>
        <mxCell id="pabbp7h-cFKbLiE3yUMI-16" value="1.0 User Authentication" style="whiteSpace=wrap;strokeWidth=2;" vertex="1" parent="1">
          <mxGeometry x="-118" y="578" width="229" height="54" as="geometry" />
        </mxCell>
        <mxCell id="pabbp7h-cFKbLiE3yUMI-17" value="2.0 Menu &amp; Ordering" style="whiteSpace=wrap;strokeWidth=2;" vertex="1" parent="1">
          <mxGeometry x="-484" y="595" width="208" height="54" as="geometry" />
        </mxCell>
        <mxCell id="pabbp7h-cFKbLiE3yUMI-18" value="3.0 Reservation Management" style="whiteSpace=wrap;strokeWidth=2;" vertex="1" parent="1">
          <mxGeometry x="227" y="566" width="260" height="78" as="geometry" />
        </mxCell>
        <mxCell id="pabbp7h-cFKbLiE3yUMI-19" value="4.0 Order Processing" style="whiteSpace=wrap;strokeWidth=2;" vertex="1" parent="1">
          <mxGeometry x="-166" y="1110" width="207" height="54" as="geometry" />
        </mxCell>
        <mxCell id="pabbp7h-cFKbLiE3yUMI-20" value="5.0 Inventory Management" style="whiteSpace=wrap;strokeWidth=2;" vertex="1" parent="1">
          <mxGeometry x="-332" y="1214" width="251" height="54" as="geometry" />
        </mxCell>
        <mxCell id="pabbp7h-cFKbLiE3yUMI-21" value="6.0 Billing &amp; Payments" style="whiteSpace=wrap;strokeWidth=2;" vertex="1" parent="1">
          <mxGeometry x="441" y="1214" width="221" height="54" as="geometry" />
        </mxCell>
        <mxCell id="pabbp7h-cFKbLiE3yUMI-22" value="7.0 Feedback &amp; Reviews" style="whiteSpace=wrap;strokeWidth=2;" vertex="1" parent="1">
          <mxGeometry x="519" y="578" width="233" height="54" as="geometry" />
        </mxCell>
        <mxCell id="pabbp7h-cFKbLiE3yUMI-23" value="8.0 Reporting &amp; Analytics" style="whiteSpace=wrap;strokeWidth=2;" vertex="1" parent="1">
          <mxGeometry x="-457" y="1110" width="241" height="54" as="geometry" />
        </mxCell>
        <mxCell id="pabbp7h-cFKbLiE3yUMI-24" value="" style="curved=1;startArrow=none;endArrow=block;exitX=0.18;exitY=1;entryX=1;entryY=0.35;rounded=0;" edge="1" parent="1" source="pabbp7h-cFKbLiE3yUMI-13" target="pabbp7h-cFKbLiE3yUMI-16">
          <mxGeometry relative="1" as="geometry">
            <Array as="points">
              <mxPoint x="1090" y="734" />
              <mxPoint x="615" y="818" />
              <mxPoint x="345" y="713" />
            </Array>
          </mxGeometry>
        </mxCell>
        <mxCell id="pabbp7h-cFKbLiE3yUMI-25" value="" style="curved=1;startArrow=none;endArrow=block;exitX=0;exitY=0;entryX=0.25;entryY=1;rounded=0;entryDx=0;entryDy=0;exitDx=0;exitDy=0;" edge="1" parent="1" source="pabbp7h-cFKbLiE3yUMI-14" target="pabbp7h-cFKbLiE3yUMI-16">
          <mxGeometry relative="1" as="geometry">
            <Array as="points">
              <mxPoint x="648" y="852" />
              <mxPoint x="446" y="859" />
              <mxPoint x="238" y="798" />
            </Array>
          </mxGeometry>
        </mxCell>
        <mxCell id="pabbp7h-cFKbLiE3yUMI-26" value="" style="curved=1;startArrow=none;endArrow=block;exitX=0;exitY=0.5;entryX=0.75;entryY=1;rounded=0;entryDx=0;entryDy=0;exitDx=0;exitDy=0;" edge="1" parent="1" source="pabbp7h-cFKbLiE3yUMI-15" target="pabbp7h-cFKbLiE3yUMI-16">
          <mxGeometry relative="1" as="geometry">
            <Array as="points">
              <mxPoint x="560.5" y="899" />
            </Array>
          </mxGeometry>
        </mxCell>
        <mxCell id="pabbp7h-cFKbLiE3yUMI-27" value="" style="curved=1;startArrow=none;endArrow=block;exitX=1;exitY=1;entryX=0.75;entryY=1;rounded=0;exitDx=0;exitDy=0;entryDx=0;entryDy=0;" edge="1" parent="1" source="pabbp7h-cFKbLiE3yUMI-16" target="pabbp7h-cFKbLiE3yUMI-13">
          <mxGeometry relative="1" as="geometry">
            <Array as="points">
              <mxPoint x="605" y="868" />
              <mxPoint x="1085" y="757" />
              <mxPoint x="1101.5" y="746" />
            </Array>
          </mxGeometry>
        </mxCell>
        <mxCell id="pabbp7h-cFKbLiE3yUMI-28" value="" style="curved=1;startArrow=none;endArrow=block;exitX=0;exitY=1;entryX=0;entryY=1;rounded=0;exitDx=0;exitDy=0;entryDx=0;entryDy=0;" edge="1" parent="1" source="pabbp7h-cFKbLiE3yUMI-16" target="pabbp7h-cFKbLiE3yUMI-14">
          <mxGeometry relative="1" as="geometry">
            <Array as="points">
              <mxPoint x="85" y="943" />
              <mxPoint x="565" y="927" />
            </Array>
          </mxGeometry>
        </mxCell>
        <mxCell id="pabbp7h-cFKbLiE3yUMI-29" value="" style="curved=1;startArrow=none;endArrow=block;exitX=0.5;exitY=1;entryX=0;entryY=1;rounded=0;exitDx=0;exitDy=0;entryDx=0;entryDy=0;" edge="1" parent="1" source="pabbp7h-cFKbLiE3yUMI-16" target="pabbp7h-cFKbLiE3yUMI-15">
          <mxGeometry relative="1" as="geometry">
            <Array as="points">
              <mxPoint x="519" y="957" />
            </Array>
          </mxGeometry>
        </mxCell>
        <mxCell id="pabbp7h-cFKbLiE3yUMI-30" value="" style="curved=1;startArrow=none;endArrow=block;exitX=0.01;exitY=1;entryX=1;entryY=0.39;rounded=0;" edge="1" parent="1" source="pabbp7h-cFKbLiE3yUMI-13" target="pabbp7h-cFKbLiE3yUMI-17">
          <mxGeometry relative="1" as="geometry">
            <Array as="points">
              <mxPoint x="1038" y="698" />
              <mxPoint x="1059" y="821" />
              <mxPoint x="398" y="927" />
            </Array>
          </mxGeometry>
        </mxCell>
        <mxCell id="pabbp7h-cFKbLiE3yUMI-31" value="" style="curved=1;startArrow=none;endArrow=block;exitX=0.75;exitY=1;entryX=0.846;entryY=0.994;rounded=0;exitDx=0;exitDy=0;entryDx=0;entryDy=0;entryPerimeter=0;" edge="1" parent="1" source="pabbp7h-cFKbLiE3yUMI-17" target="pabbp7h-cFKbLiE3yUMI-13">
          <mxGeometry relative="1" as="geometry">
            <Array as="points">
              <mxPoint x="-28" y="859" />
              <mxPoint x="184" y="958" />
              <mxPoint x="431" y="985" />
              <mxPoint x="1070" y="926" />
              <mxPoint x="1131" y="764" />
            </Array>
          </mxGeometry>
        </mxCell>
        <mxCell id="pabbp7h-cFKbLiE3yUMI-32" value="" style="curved=1;startArrow=none;endArrow=block;exitX=0;exitY=0.75;entryX=0.5;entryY=1;rounded=0;entryDx=0;entryDy=0;exitDx=0;exitDy=0;" edge="1" parent="1" source="pabbp7h-cFKbLiE3yUMI-13" target="pabbp7h-cFKbLiE3yUMI-18">
          <mxGeometry relative="1" as="geometry">
            <Array as="points">
              <mxPoint x="1059" y="667" />
              <mxPoint x="958" y="717" />
              <mxPoint x="765" y="788" />
            </Array>
          </mxGeometry>
        </mxCell>
        <mxCell id="pabbp7h-cFKbLiE3yUMI-33" value="" style="curved=1;startArrow=none;endArrow=block;exitX=1;exitY=1;entryX=0;entryY=0.5;rounded=0;exitDx=0;exitDy=0;entryDx=0;entryDy=0;" edge="1" parent="1" source="pabbp7h-cFKbLiE3yUMI-18" target="pabbp7h-cFKbLiE3yUMI-13">
          <mxGeometry relative="1" as="geometry">
            <Array as="points">
              <mxPoint x="819" y="731" />
              <mxPoint x="1076" y="629" />
            </Array>
          </mxGeometry>
        </mxCell>
        <mxCell id="pabbp7h-cFKbLiE3yUMI-34" value="" style="curved=1;startArrow=none;endArrow=block;rounded=0;exitX=1;exitY=0;exitDx=0;exitDy=0;" edge="1" parent="1" source="pabbp7h-cFKbLiE3yUMI-15" target="pabbp7h-cFKbLiE3yUMI-19">
          <mxGeometry relative="1" as="geometry">
            <Array as="points">
              <mxPoint x="1124.5" y="1003" />
              <mxPoint x="512" y="1067" />
              <mxPoint x="-100.5" y="1028" />
            </Array>
          </mxGeometry>
        </mxCell>
        <mxCell id="pabbp7h-cFKbLiE3yUMI-35" value="" style="curved=1;startArrow=none;endArrow=block;exitX=1;exitY=0.25;entryX=0;entryY=0;rounded=0;entryDx=0;entryDy=0;" edge="1" parent="1" source="pabbp7h-cFKbLiE3yUMI-19" target="pabbp7h-cFKbLiE3yUMI-15">
          <mxGeometry relative="1" as="geometry">
            <Array as="points">
              <mxPoint x="456" y="1113" />
              <mxPoint x="1189" y="1177" />
            </Array>
          </mxGeometry>
        </mxCell>
        <mxCell id="pabbp7h-cFKbLiE3yUMI-36" value="" style="curved=1;startArrow=none;endArrow=block;exitX=0.5;exitY=1;rounded=0;entryX=0;entryY=0;entryDx=0;entryDy=0;" edge="1" parent="1" source="pabbp7h-cFKbLiE3yUMI-17" target="pabbp7h-cFKbLiE3yUMI-19">
          <mxGeometry relative="1" as="geometry">
            <Array as="points">
              <mxPoint x="-180" y="1085" />
            </Array>
            <mxPoint x="-114" y="1110" as="targetPoint" />
          </mxGeometry>
        </mxCell>
        <mxCell id="pabbp7h-cFKbLiE3yUMI-37" value="" style="curved=1;startArrow=none;endArrow=block;exitX=1;exitY=0.7;entryX=0.17;entryY=0;rounded=0;" edge="1" parent="1" source="pabbp7h-cFKbLiE3yUMI-19" target="pabbp7h-cFKbLiE3yUMI-21">
          <mxGeometry relative="1" as="geometry">
            <Array as="points">
              <mxPoint x="440" y="1189" />
            </Array>
          </mxGeometry>
        </mxCell>
        <mxCell id="pabbp7h-cFKbLiE3yUMI-38" value="" style="curved=1;startArrow=none;endArrow=block;exitX=0.94;exitY=1;entryX=0.21;entryY=0;rounded=0;" edge="1" parent="1" source="pabbp7h-cFKbLiE3yUMI-13" target="pabbp7h-cFKbLiE3yUMI-21">
          <mxGeometry relative="1" as="geometry">
            <Array as="points">
              <mxPoint x="1271.5" y="746" />
              <mxPoint x="1271.5" y="1003" />
              <mxPoint x="939" y="1116" />
              <mxPoint x="796" y="1151" />
              <mxPoint x="659" y="1173" />
              <mxPoint x="577" y="1191" />
            </Array>
          </mxGeometry>
        </mxCell>
        <mxCell id="pabbp7h-cFKbLiE3yUMI-39" value="" style="curved=1;startArrow=none;endArrow=block;exitX=0.65;exitY=0;entryX=1;entryY=0.98;rounded=0;" edge="1" parent="1" source="pabbp7h-cFKbLiE3yUMI-21" target="pabbp7h-cFKbLiE3yUMI-13">
          <mxGeometry relative="1" as="geometry">
            <Array as="points">
              <mxPoint x="756" y="1171" />
              <mxPoint x="813" y="1161" />
              <mxPoint x="1051" y="1091" />
              <mxPoint x="1291.5" y="1003" />
              <mxPoint x="1291.5" y="746" />
            </Array>
          </mxGeometry>
        </mxCell>
        <mxCell id="pabbp7h-cFKbLiE3yUMI-40" value="" style="curved=1;startArrow=none;endArrow=block;exitX=0.25;exitY=1;entryX=0;entryY=0.5;rounded=0;entryDx=0;entryDy=0;exitDx=0;exitDy=0;" edge="1" parent="1" source="pabbp7h-cFKbLiE3yUMI-14">
          <mxGeometry relative="1" as="geometry">
            <Array as="points">
              <mxPoint x="1018" y="992" />
              <mxPoint x="322" y="1003" />
              <mxPoint x="-395" y="970" />
              <mxPoint x="-498" y="1117" />
              <mxPoint x="-506" y="1232" />
              <mxPoint x="-414" y="1261" />
            </Array>
            <mxPoint x="1132.9499999999998" y="881.9999999999998" as="sourcePoint" />
            <mxPoint x="-329" y="1232" as="targetPoint" />
          </mxGeometry>
        </mxCell>
        <mxCell id="pabbp7h-cFKbLiE3yUMI-41" value="" style="curved=1;startArrow=none;endArrow=block;exitX=0.5;exitY=1;entryX=0.8;entryY=0;rounded=0;" edge="1" parent="1" source="pabbp7h-cFKbLiE3yUMI-19" target="pabbp7h-cFKbLiE3yUMI-20">
          <mxGeometry relative="1" as="geometry">
            <Array as="points">
              <mxPoint x="-63" y="1189" />
            </Array>
          </mxGeometry>
        </mxCell>
        <mxCell id="pabbp7h-cFKbLiE3yUMI-42" value="" style="curved=1;startArrow=none;endArrow=block;exitX=1;exitY=0.31;entryX=1;entryY=0.76;rounded=0;" edge="1" parent="1" source="pabbp7h-cFKbLiE3yUMI-20" target="pabbp7h-cFKbLiE3yUMI-14">
          <mxGeometry relative="1" as="geometry">
            <Array as="points">
              <mxPoint x="520" y="1176" />
              <mxPoint x="653" y="1168" />
              <mxPoint x="1229.5" y="1003" />
            </Array>
          </mxGeometry>
        </mxCell>
        <mxCell id="pabbp7h-cFKbLiE3yUMI-43" value="" style="curved=1;startArrow=none;endArrow=block;exitX=0;exitY=0;entryX=1;entryY=0.14;rounded=0;exitDx=0;exitDy=0;" edge="1" parent="1" source="pabbp7h-cFKbLiE3yUMI-13" target="pabbp7h-cFKbLiE3yUMI-22">
          <mxGeometry relative="1" as="geometry">
            <Array as="points">
              <mxPoint x="1106" y="557" />
              <mxPoint x="1017" y="577" />
            </Array>
          </mxGeometry>
        </mxCell>
        <mxCell id="pabbp7h-cFKbLiE3yUMI-44" value="" style="curved=1;startArrow=none;endArrow=block;exitX=1;exitY=1;entryX=0;entryY=0.25;rounded=0;exitDx=0;exitDy=0;entryDx=0;entryDy=0;" edge="1" parent="1" source="pabbp7h-cFKbLiE3yUMI-22" target="pabbp7h-cFKbLiE3yUMI-13">
          <mxGeometry relative="1" as="geometry">
            <Array as="points">
              <mxPoint x="976" y="605" />
              <mxPoint x="1127" y="583" />
              <mxPoint x="1163" y="583" />
            </Array>
          </mxGeometry>
        </mxCell>
        <mxCell id="pabbp7h-cFKbLiE3yUMI-45" value="" style="curved=1;startArrow=none;endArrow=block;exitX=0.71;exitY=1;entryX=0.35;entryY=0;rounded=0;" edge="1" parent="1" source="pabbp7h-cFKbLiE3yUMI-14" target="pabbp7h-cFKbLiE3yUMI-23">
          <mxGeometry relative="1" as="geometry">
            <Array as="points">
              <mxPoint x="1039" y="890" />
              <mxPoint x="-304.5" y="1028" />
            </Array>
          </mxGeometry>
        </mxCell>
        <mxCell id="pabbp7h-cFKbLiE3yUMI-46" value="" style="curved=1;startArrow=none;endArrow=block;exitX=0.75;exitY=0;entryX=0.82;entryY=1;rounded=0;" edge="1" parent="1" source="pabbp7h-cFKbLiE3yUMI-23" target="pabbp7h-cFKbLiE3yUMI-14">
          <mxGeometry relative="1" as="geometry">
            <Array as="points">
              <mxPoint x="-120.5" y="1028" />
              <mxPoint x="500" y="1028" />
              <mxPoint x="1104.5" y="1003" />
            </Array>
          </mxGeometry>
        </mxCell>
        <mxCell id="pabbp7h-cFKbLiE3yUMI-47" value="Customer" style="whiteSpace=wrap;strokeWidth=2;" vertex="1" parent="1">
          <mxGeometry x="-395.5" y="1987" width="128" height="54" as="geometry" />
        </mxCell>
        <mxCell id="pabbp7h-cFKbLiE3yUMI-48" value="2.1 Browse Menu" style="whiteSpace=wrap;strokeWidth=2;" vertex="1" parent="1">
          <mxGeometry x="-421.5" y="2091" width="181" height="54" as="geometry" />
        </mxCell>
        <mxCell id="pabbp7h-cFKbLiE3yUMI-49" value="2.2 Select Items" style="whiteSpace=wrap;strokeWidth=2;" vertex="1" parent="1">
          <mxGeometry x="-418.5" y="2195" width="176" height="54" as="geometry" />
        </mxCell>
        <mxCell id="pabbp7h-cFKbLiE3yUMI-50" value="2.3 Add to Cart" style="whiteSpace=wrap;strokeWidth=2;" vertex="1" parent="1">
          <mxGeometry x="-415.5" y="2299" width="169" height="54" as="geometry" />
        </mxCell>
        <mxCell id="pabbp7h-cFKbLiE3yUMI-51" value="2.4 Place Order" style="whiteSpace=wrap;strokeWidth=2;" vertex="1" parent="1">
          <mxGeometry x="-417.5" y="2403" width="172" height="54" as="geometry" />
        </mxCell>
        <mxCell id="pabbp7h-cFKbLiE3yUMI-52" value="Order Database" style="whiteSpace=wrap;strokeWidth=2;" vertex="1" parent="1">
          <mxGeometry x="-416.5" y="2507" width="171" height="54" as="geometry" />
        </mxCell>
        <mxCell id="pabbp7h-cFKbLiE3yUMI-53" value="" style="curved=1;startArrow=none;endArrow=block;exitX=0.5;exitY=1;entryX=0.5;entryY=0;rounded=0;" edge="1" parent="1" source="pabbp7h-cFKbLiE3yUMI-47" target="pabbp7h-cFKbLiE3yUMI-48">
          <mxGeometry relative="1" as="geometry">
            <Array as="points" />
          </mxGeometry>
        </mxCell>
        <mxCell id="pabbp7h-cFKbLiE3yUMI-54" value="" style="curved=1;startArrow=none;endArrow=block;exitX=0.5;exitY=1;entryX=0.5;entryY=0;rounded=0;" edge="1" parent="1" source="pabbp7h-cFKbLiE3yUMI-48" target="pabbp7h-cFKbLiE3yUMI-49">
          <mxGeometry relative="1" as="geometry">
            <Array as="points" />
          </mxGeometry>
        </mxCell>
        <mxCell id="pabbp7h-cFKbLiE3yUMI-55" value="" style="curved=1;startArrow=none;endArrow=block;exitX=0.5;exitY=1;entryX=0.5;entryY=0;rounded=0;" edge="1" parent="1" source="pabbp7h-cFKbLiE3yUMI-49" target="pabbp7h-cFKbLiE3yUMI-50">
          <mxGeometry relative="1" as="geometry">
            <Array as="points" />
          </mxGeometry>
        </mxCell>
        <mxCell id="pabbp7h-cFKbLiE3yUMI-56" value="" style="curved=1;startArrow=none;endArrow=block;exitX=0.5;exitY=1;entryX=0.5;entryY=0;rounded=0;" edge="1" parent="1" source="pabbp7h-cFKbLiE3yUMI-50" target="pabbp7h-cFKbLiE3yUMI-51">
          <mxGeometry relative="1" as="geometry">
            <Array as="points" />
          </mxGeometry>
        </mxCell>
        <mxCell id="pabbp7h-cFKbLiE3yUMI-57" value="" style="curved=1;startArrow=none;endArrow=block;exitX=0.5;exitY=1;entryX=0.5;entryY=0;rounded=0;" edge="1" parent="1" source="pabbp7h-cFKbLiE3yUMI-51" target="pabbp7h-cFKbLiE3yUMI-52">
          <mxGeometry relative="1" as="geometry">
            <Array as="points" />
          </mxGeometry>
        </mxCell>
        <mxCell id="pabbp7h-cFKbLiE3yUMI-58" value="&lt;h2&gt;&lt;span data-end=&quot;1487&quot; data-start=&quot;1445&quot;&gt;&lt;span&gt;Level 2: Detailed DFD for Core Modules&lt;/span&gt;&lt;/span&gt;&lt;/h2&gt;" style="text;html=1;align=center;verticalAlign=middle;resizable=0;points=[];autosize=1;strokeColor=#6c8ebf;fillColor=#dae8fc;dashed=1;fontFamily=Verdana;fontStyle=1" vertex="1" parent="1">
          <mxGeometry x="210.5" y="1632" width="413" height="63" as="geometry" />
        </mxCell>
        <mxCell id="pabbp7h-cFKbLiE3yUMI-59" value="&lt;h3&gt;&lt;font face=&quot;Verdana&quot;&gt;&lt;strong data-end=&quot;1520&quot; data-start=&quot;1497&quot;&gt;2.0 Menu &amp;amp; Ordering&lt;/strong&gt;&lt;/font&gt;&lt;/h3&gt;" style="text;html=1;align=center;verticalAlign=middle;resizable=0;points=[];autosize=1;strokeColor=#d79b00;fillColor=#ffe6cc;" vertex="1" parent="1">
          <mxGeometry x="-421.5" y="1898" width="182" height="58" as="geometry" />
        </mxCell>
        <mxCell id="pabbp7h-cFKbLiE3yUMI-61" value="&lt;h3&gt;&lt;strong data-end=&quot;268&quot; data-start=&quot;220&quot;&gt;Level 0: Context-Level DFD (System Overview)&lt;/strong&gt;&lt;/h3&gt;" style="text;html=1;align=center;verticalAlign=middle;resizable=0;points=[];autosize=1;strokeColor=#6c8ebf;fillColor=#dae8fc;fontFamily=Verdana;fontStyle=1" vertex="1" parent="1">
          <mxGeometry x="258" y="-276" width="389" height="57" as="geometry" />
        </mxCell>
        <mxCell id="pabbp7h-cFKbLiE3yUMI-62" value="&lt;h2&gt;&lt;span&gt;Level 1: Process-Level DFD (Major Modules)&lt;/span&gt;&lt;/h2&gt;" style="text;html=1;align=center;verticalAlign=middle;resizable=0;points=[];autosize=1;strokeColor=#6c8ebf;fillColor=#dae8fc;fontStyle=1;fontFamily=Verdana;dashed=1;fillStyle=solid;" vertex="1" parent="1">
          <mxGeometry x="220" y="420" width="465" height="63" as="geometry" />
        </mxCell>
        <mxCell id="pabbp7h-cFKbLiE3yUMI-63" value="Customer" style="whiteSpace=wrap;strokeWidth=2;" vertex="1" parent="1">
          <mxGeometry x="345.5" y="2053" width="128" height="54" as="geometry" />
        </mxCell>
        <mxCell id="pabbp7h-cFKbLiE3yUMI-64" value="3.1 View Table Availability" style="whiteSpace=wrap;strokeWidth=2;" vertex="1" parent="1">
          <mxGeometry x="285.5" y="2157" width="248" height="54" as="geometry" />
        </mxCell>
        <mxCell id="pabbp7h-cFKbLiE3yUMI-65" value="3.2 Select Time/Guests" style="whiteSpace=wrap;strokeWidth=2;" vertex="1" parent="1">
          <mxGeometry x="295.5" y="2261" width="227" height="54" as="geometry" />
        </mxCell>
        <mxCell id="pabbp7h-cFKbLiE3yUMI-66" value="3.3 Confirm Reservation" style="whiteSpace=wrap;strokeWidth=2;" vertex="1" parent="1">
          <mxGeometry x="293.5" y="2365" width="232" height="54" as="geometry" />
        </mxCell>
        <mxCell id="pabbp7h-cFKbLiE3yUMI-67" value="Reservation Database" style="whiteSpace=wrap;strokeWidth=2;" vertex="1" parent="1">
          <mxGeometry x="302.5" y="2469" width="214" height="54" as="geometry" />
        </mxCell>
        <mxCell id="pabbp7h-cFKbLiE3yUMI-68" value="" style="curved=1;startArrow=none;endArrow=block;exitX=0.5;exitY=1;entryX=0.5;entryY=0;rounded=0;" edge="1" parent="1" source="pabbp7h-cFKbLiE3yUMI-63" target="pabbp7h-cFKbLiE3yUMI-64">
          <mxGeometry relative="1" as="geometry">
            <Array as="points" />
          </mxGeometry>
        </mxCell>
        <mxCell id="pabbp7h-cFKbLiE3yUMI-69" value="" style="curved=1;startArrow=none;endArrow=block;exitX=0.5;exitY=1;entryX=0.5;entryY=0;rounded=0;" edge="1" parent="1" source="pabbp7h-cFKbLiE3yUMI-64" target="pabbp7h-cFKbLiE3yUMI-65">
          <mxGeometry relative="1" as="geometry">
            <Array as="points" />
          </mxGeometry>
        </mxCell>
        <mxCell id="pabbp7h-cFKbLiE3yUMI-70" value="" style="curved=1;startArrow=none;endArrow=block;exitX=0.5;exitY=1;entryX=0.5;entryY=0;rounded=0;" edge="1" parent="1" source="pabbp7h-cFKbLiE3yUMI-65" target="pabbp7h-cFKbLiE3yUMI-66">
          <mxGeometry relative="1" as="geometry">
            <Array as="points" />
          </mxGeometry>
        </mxCell>
        <mxCell id="pabbp7h-cFKbLiE3yUMI-71" value="" style="curved=1;startArrow=none;endArrow=block;exitX=0.5;exitY=1;entryX=0.5;entryY=0;rounded=0;" edge="1" parent="1" source="pabbp7h-cFKbLiE3yUMI-66" target="pabbp7h-cFKbLiE3yUMI-67">
          <mxGeometry relative="1" as="geometry">
            <Array as="points" />
          </mxGeometry>
        </mxCell>
        <mxCell id="pabbp7h-cFKbLiE3yUMI-72" value="&lt;h3&gt;&lt;font face=&quot;Verdana&quot;&gt;3.0 Reservation Management&lt;/font&gt;&lt;/h3&gt;" style="text;html=1;align=center;verticalAlign=middle;resizable=0;points=[];autosize=1;strokeColor=#d79b00;fillColor=#ffe6cc;" vertex="1" parent="1">
          <mxGeometry x="302.5" y="1885" width="249" height="58" as="geometry" />
        </mxCell>
        <mxCell id="pabbp7h-cFKbLiE3yUMI-73" value="Staff" style="whiteSpace=wrap;strokeWidth=2;" vertex="1" parent="1">
          <mxGeometry x="1137.5" y="2029" width="94" height="54" as="geometry" />
        </mxCell>
        <mxCell id="pabbp7h-cFKbLiE3yUMI-74" value="4.1 View Orders" style="whiteSpace=wrap;strokeWidth=2;" vertex="1" parent="1">
          <mxGeometry x="1097.5" y="2133" width="174" height="54" as="geometry" />
        </mxCell>
        <mxCell id="pabbp7h-cFKbLiE3yUMI-75" value="4.2 Update Order Status" style="whiteSpace=wrap;strokeWidth=2;" vertex="1" parent="1">
          <mxGeometry x="1067.5" y="2237" width="234" height="54" as="geometry" />
        </mxCell>
        <mxCell id="pabbp7h-cFKbLiE3yUMI-76" value="4.3 Mark as Prepared / Delivered" style="whiteSpace=wrap;strokeWidth=2;" vertex="1" parent="1">
          <mxGeometry x="1054.5" y="2341" width="260" height="78" as="geometry" />
        </mxCell>
        <mxCell id="pabbp7h-cFKbLiE3yUMI-77" value="Order Database" style="whiteSpace=wrap;strokeWidth=2;" vertex="1" parent="1">
          <mxGeometry x="1098.5" y="2469" width="171" height="54" as="geometry" />
        </mxCell>
        <mxCell id="pabbp7h-cFKbLiE3yUMI-78" value="" style="curved=1;startArrow=none;endArrow=block;exitX=0.5;exitY=1;entryX=0.5;entryY=0;rounded=0;" edge="1" parent="1" source="pabbp7h-cFKbLiE3yUMI-73" target="pabbp7h-cFKbLiE3yUMI-74">
          <mxGeometry relative="1" as="geometry">
            <Array as="points" />
          </mxGeometry>
        </mxCell>
        <mxCell id="pabbp7h-cFKbLiE3yUMI-79" value="" style="curved=1;startArrow=none;endArrow=block;exitX=0.5;exitY=1;entryX=0.5;entryY=0;rounded=0;" edge="1" parent="1" source="pabbp7h-cFKbLiE3yUMI-74" target="pabbp7h-cFKbLiE3yUMI-75">
          <mxGeometry relative="1" as="geometry">
            <Array as="points" />
          </mxGeometry>
        </mxCell>
        <mxCell id="pabbp7h-cFKbLiE3yUMI-80" value="" style="curved=1;startArrow=none;endArrow=block;exitX=0.5;exitY=1;entryX=0.5;entryY=0;rounded=0;" edge="1" parent="1" source="pabbp7h-cFKbLiE3yUMI-75" target="pabbp7h-cFKbLiE3yUMI-76">
          <mxGeometry relative="1" as="geometry">
            <Array as="points" />
          </mxGeometry>
        </mxCell>
        <mxCell id="pabbp7h-cFKbLiE3yUMI-81" value="" style="curved=1;startArrow=none;endArrow=block;exitX=0.5;exitY=1;entryX=0.5;entryY=0;rounded=0;" edge="1" parent="1" source="pabbp7h-cFKbLiE3yUMI-76" target="pabbp7h-cFKbLiE3yUMI-77">
          <mxGeometry relative="1" as="geometry">
            <Array as="points" />
          </mxGeometry>
        </mxCell>
        <mxCell id="pabbp7h-cFKbLiE3yUMI-82" value="&lt;h3&gt;&lt;font face=&quot;Verdana&quot;&gt;4.0 Order Processing&lt;/font&gt;&lt;/h3&gt;" style="text;html=1;align=center;verticalAlign=middle;resizable=0;points=[];autosize=1;strokeColor=#d79b00;fillColor=#ffe6cc;" vertex="1" parent="1">
          <mxGeometry x="1098.5" y="1898" width="183" height="58" as="geometry" />
        </mxCell>
        <mxCell id="pabbp7h-cFKbLiE3yUMI-83" value="Admin" style="whiteSpace=wrap;strokeWidth=2;" vertex="1" parent="1">
          <mxGeometry x="-389.5" y="2829" width="105" height="54" as="geometry" />
        </mxCell>
        <mxCell id="pabbp7h-cFKbLiE3yUMI-84" value="5.1 View Stock" style="whiteSpace=wrap;strokeWidth=2;" vertex="1" parent="1">
          <mxGeometry x="-419.5" y="2933" width="165" height="54" as="geometry" />
        </mxCell>
        <mxCell id="pabbp7h-cFKbLiE3yUMI-85" value="5.2 Update Inventory" style="whiteSpace=wrap;strokeWidth=2;" vertex="1" parent="1">
          <mxGeometry x="-442.5" y="3037" width="212" height="54" as="geometry" />
        </mxCell>
        <mxCell id="pabbp7h-cFKbLiE3yUMI-86" value="5.3 Generate Alerts" style="whiteSpace=wrap;strokeWidth=2;" vertex="1" parent="1">
          <mxGeometry x="-436.5" y="3141" width="200" height="54" as="geometry" />
        </mxCell>
        <mxCell id="pabbp7h-cFKbLiE3yUMI-87" value="Inventory Database" style="whiteSpace=wrap;strokeWidth=2;" vertex="1" parent="1">
          <mxGeometry x="-435.5" y="3245" width="198" height="54" as="geometry" />
        </mxCell>
        <mxCell id="pabbp7h-cFKbLiE3yUMI-88" value="" style="curved=1;startArrow=none;endArrow=block;exitX=0.5;exitY=1;entryX=0.5;entryY=0;rounded=0;" edge="1" parent="1" source="pabbp7h-cFKbLiE3yUMI-83" target="pabbp7h-cFKbLiE3yUMI-84">
          <mxGeometry relative="1" as="geometry">
            <Array as="points" />
          </mxGeometry>
        </mxCell>
        <mxCell id="pabbp7h-cFKbLiE3yUMI-89" value="" style="curved=1;startArrow=none;endArrow=block;exitX=0.5;exitY=1;entryX=0.5;entryY=0;rounded=0;" edge="1" parent="1" source="pabbp7h-cFKbLiE3yUMI-84" target="pabbp7h-cFKbLiE3yUMI-85">
          <mxGeometry relative="1" as="geometry">
            <Array as="points" />
          </mxGeometry>
        </mxCell>
        <mxCell id="pabbp7h-cFKbLiE3yUMI-90" value="" style="curved=1;startArrow=none;endArrow=block;exitX=0.5;exitY=1;entryX=0.5;entryY=0;rounded=0;" edge="1" parent="1" source="pabbp7h-cFKbLiE3yUMI-85" target="pabbp7h-cFKbLiE3yUMI-86">
          <mxGeometry relative="1" as="geometry">
            <Array as="points" />
          </mxGeometry>
        </mxCell>
        <mxCell id="pabbp7h-cFKbLiE3yUMI-91" value="" style="curved=1;startArrow=none;endArrow=block;exitX=0.5;exitY=1;entryX=0.5;entryY=0;rounded=0;" edge="1" parent="1" source="pabbp7h-cFKbLiE3yUMI-86" target="pabbp7h-cFKbLiE3yUMI-87">
          <mxGeometry relative="1" as="geometry">
            <Array as="points" />
          </mxGeometry>
        </mxCell>
        <mxCell id="pabbp7h-cFKbLiE3yUMI-92" value="Customer" style="whiteSpace=wrap;strokeWidth=2;" vertex="1" parent="1">
          <mxGeometry x="342.5" y="2829" width="128" height="54" as="geometry" />
        </mxCell>
        <mxCell id="pabbp7h-cFKbLiE3yUMI-93" value="6.1 View Bill" style="whiteSpace=wrap;strokeWidth=2;" vertex="1" parent="1">
          <mxGeometry x="331.5" y="2933" width="150" height="54" as="geometry" />
        </mxCell>
        <mxCell id="pabbp7h-cFKbLiE3yUMI-94" value="6.2 Select Payment Method" style="whiteSpace=wrap;strokeWidth=2;" vertex="1" parent="1">
          <mxGeometry x="278.5" y="3037" width="255" height="54" as="geometry" />
        </mxCell>
        <mxCell id="pabbp7h-cFKbLiE3yUMI-95" value="6.3 Confirm Payment" style="whiteSpace=wrap;strokeWidth=2;" vertex="1" parent="1">
          <mxGeometry x="300.5" y="3141" width="211" height="54" as="geometry" />
        </mxCell>
        <mxCell id="pabbp7h-cFKbLiE3yUMI-96" value="Payment Database" style="whiteSpace=wrap;strokeWidth=2;" vertex="1" parent="1">
          <mxGeometry x="310.5" y="3245" width="192" height="54" as="geometry" />
        </mxCell>
        <mxCell id="pabbp7h-cFKbLiE3yUMI-97" value="" style="curved=1;startArrow=none;endArrow=block;exitX=0.5;exitY=1;entryX=0.5;entryY=0;rounded=0;" edge="1" parent="1" source="pabbp7h-cFKbLiE3yUMI-92" target="pabbp7h-cFKbLiE3yUMI-93">
          <mxGeometry relative="1" as="geometry">
            <Array as="points" />
          </mxGeometry>
        </mxCell>
        <mxCell id="pabbp7h-cFKbLiE3yUMI-98" value="" style="curved=1;startArrow=none;endArrow=block;exitX=0.5;exitY=1;entryX=0.5;entryY=0;rounded=0;" edge="1" parent="1" source="pabbp7h-cFKbLiE3yUMI-93" target="pabbp7h-cFKbLiE3yUMI-94">
          <mxGeometry relative="1" as="geometry">
            <Array as="points" />
          </mxGeometry>
        </mxCell>
        <mxCell id="pabbp7h-cFKbLiE3yUMI-99" value="" style="curved=1;startArrow=none;endArrow=block;exitX=0.5;exitY=1;entryX=0.5;entryY=0;rounded=0;" edge="1" parent="1" source="pabbp7h-cFKbLiE3yUMI-94" target="pabbp7h-cFKbLiE3yUMI-95">
          <mxGeometry relative="1" as="geometry">
            <Array as="points" />
          </mxGeometry>
        </mxCell>
        <mxCell id="pabbp7h-cFKbLiE3yUMI-100" value="" style="curved=1;startArrow=none;endArrow=block;exitX=0.5;exitY=1;entryX=0.5;entryY=0;rounded=0;" edge="1" parent="1" source="pabbp7h-cFKbLiE3yUMI-95" target="pabbp7h-cFKbLiE3yUMI-96">
          <mxGeometry relative="1" as="geometry">
            <Array as="points" />
          </mxGeometry>
        </mxCell>
        <mxCell id="pabbp7h-cFKbLiE3yUMI-101" value="Customer" style="whiteSpace=wrap;strokeWidth=2;" vertex="1" parent="1">
          <mxGeometry x="1138.5" y="2887" width="128" height="54" as="geometry" />
        </mxCell>
        <mxCell id="pabbp7h-cFKbLiE3yUMI-102" value="7.1 Provide Rating" style="whiteSpace=wrap;strokeWidth=2;" vertex="1" parent="1">
          <mxGeometry x="1106.5" y="2991" width="191" height="54" as="geometry" />
        </mxCell>
        <mxCell id="pabbp7h-cFKbLiE3yUMI-103" value="7.2 Write Feedback" style="whiteSpace=wrap;strokeWidth=2;" vertex="1" parent="1">
          <mxGeometry x="1102.5" y="3095" width="199" height="54" as="geometry" />
        </mxCell>
        <mxCell id="pabbp7h-cFKbLiE3yUMI-104" value="Feedback Database" style="whiteSpace=wrap;strokeWidth=2;" vertex="1" parent="1">
          <mxGeometry x="1102.5" y="3199" width="198" height="54" as="geometry" />
        </mxCell>
        <mxCell id="pabbp7h-cFKbLiE3yUMI-105" value="" style="curved=1;startArrow=none;endArrow=block;exitX=0.5;exitY=1;entryX=0.5;entryY=0;rounded=0;" edge="1" parent="1" source="pabbp7h-cFKbLiE3yUMI-101" target="pabbp7h-cFKbLiE3yUMI-102">
          <mxGeometry relative="1" as="geometry">
            <Array as="points" />
          </mxGeometry>
        </mxCell>
        <mxCell id="pabbp7h-cFKbLiE3yUMI-106" value="" style="curved=1;startArrow=none;endArrow=block;exitX=0.5;exitY=1;entryX=0.5;entryY=0;rounded=0;" edge="1" parent="1" source="pabbp7h-cFKbLiE3yUMI-102" target="pabbp7h-cFKbLiE3yUMI-103">
          <mxGeometry relative="1" as="geometry">
            <Array as="points" />
          </mxGeometry>
        </mxCell>
        <mxCell id="pabbp7h-cFKbLiE3yUMI-107" value="" style="curved=1;startArrow=none;endArrow=block;exitX=0.5;exitY=1;entryX=0.5;entryY=0;rounded=0;" edge="1" parent="1" source="pabbp7h-cFKbLiE3yUMI-103" target="pabbp7h-cFKbLiE3yUMI-104">
          <mxGeometry relative="1" as="geometry">
            <Array as="points" />
          </mxGeometry>
        </mxCell>
        <mxCell id="pabbp7h-cFKbLiE3yUMI-108" value="Admin" style="whiteSpace=wrap;strokeWidth=2;" vertex="1" parent="1">
          <mxGeometry x="364" y="3711" width="105" height="54" as="geometry" />
        </mxCell>
        <mxCell id="pabbp7h-cFKbLiE3yUMI-109" value="8.1 Generate Sales Report" style="whiteSpace=wrap;strokeWidth=2;" vertex="1" parent="1">
          <mxGeometry x="-3" y="3815" width="247" height="54" as="geometry" />
        </mxCell>
        <mxCell id="pabbp7h-cFKbLiE3yUMI-110" value="8.2 View Inventory Trends" style="whiteSpace=wrap;strokeWidth=2;" vertex="1" parent="1">
          <mxGeometry x="294" y="3815" width="245" height="54" as="geometry" />
        </mxCell>
        <mxCell id="pabbp7h-cFKbLiE3yUMI-111" value="8.3 Staff Performance" style="whiteSpace=wrap;strokeWidth=2;" vertex="1" parent="1">
          <mxGeometry x="590" y="3815" width="217" height="54" as="geometry" />
        </mxCell>
        <mxCell id="pabbp7h-cFKbLiE3yUMI-112" value="Reports DB" style="whiteSpace=wrap;strokeWidth=2;" vertex="1" parent="1">
          <mxGeometry x="348" y="3919" width="138" height="54" as="geometry" />
        </mxCell>
        <mxCell id="pabbp7h-cFKbLiE3yUMI-113" value="" style="curved=1;startArrow=none;endArrow=block;exitX=0;exitY=0.67;entryX=0.5;entryY=0;rounded=0;" edge="1" parent="1" source="pabbp7h-cFKbLiE3yUMI-108" target="pabbp7h-cFKbLiE3yUMI-109">
          <mxGeometry relative="1" as="geometry">
            <Array as="points">
              <mxPoint x="121" y="3790" />
            </Array>
          </mxGeometry>
        </mxCell>
        <mxCell id="pabbp7h-cFKbLiE3yUMI-114" value="" style="curved=1;startArrow=none;endArrow=block;exitX=0.5;exitY=1;entryX=0.5;entryY=0;rounded=0;" edge="1" parent="1" source="pabbp7h-cFKbLiE3yUMI-108" target="pabbp7h-cFKbLiE3yUMI-110">
          <mxGeometry relative="1" as="geometry">
            <Array as="points" />
          </mxGeometry>
        </mxCell>
        <mxCell id="pabbp7h-cFKbLiE3yUMI-115" value="" style="curved=1;startArrow=none;endArrow=block;exitX=1;exitY=0.68;entryX=0.5;entryY=0;rounded=0;" edge="1" parent="1" source="pabbp7h-cFKbLiE3yUMI-108" target="pabbp7h-cFKbLiE3yUMI-111">
          <mxGeometry relative="1" as="geometry">
            <Array as="points">
              <mxPoint x="698" y="3790" />
            </Array>
          </mxGeometry>
        </mxCell>
        <mxCell id="pabbp7h-cFKbLiE3yUMI-116" value="" style="curved=1;startArrow=none;endArrow=block;exitX=0.5;exitY=1;entryX=0;entryY=0.28;rounded=0;" edge="1" parent="1" source="pabbp7h-cFKbLiE3yUMI-109" target="pabbp7h-cFKbLiE3yUMI-112">
          <mxGeometry relative="1" as="geometry">
            <Array as="points">
              <mxPoint x="121" y="3894" />
            </Array>
          </mxGeometry>
        </mxCell>
        <mxCell id="pabbp7h-cFKbLiE3yUMI-117" value="" style="curved=1;startArrow=none;endArrow=block;exitX=0.5;exitY=1;entryX=0.5;entryY=0;rounded=0;" edge="1" parent="1" source="pabbp7h-cFKbLiE3yUMI-110" target="pabbp7h-cFKbLiE3yUMI-112">
          <mxGeometry relative="1" as="geometry">
            <Array as="points" />
          </mxGeometry>
        </mxCell>
        <mxCell id="pabbp7h-cFKbLiE3yUMI-118" value="" style="curved=1;startArrow=none;endArrow=block;exitX=0.5;exitY=1;entryX=1;entryY=0.26;rounded=0;" edge="1" parent="1" source="pabbp7h-cFKbLiE3yUMI-111" target="pabbp7h-cFKbLiE3yUMI-112">
          <mxGeometry relative="1" as="geometry">
            <Array as="points">
              <mxPoint x="698" y="3894" />
            </Array>
          </mxGeometry>
        </mxCell>
        <mxCell id="pabbp7h-cFKbLiE3yUMI-119" value="&lt;h3&gt;&lt;strong data-end=&quot;2814&quot; data-start=&quot;2785&quot;&gt;&lt;font face=&quot;Verdana&quot;&gt;8.0 Reporting &amp;amp; Analytics&lt;/font&gt;&lt;/strong&gt;&lt;/h3&gt;" style="text;html=1;align=center;verticalAlign=middle;resizable=0;points=[];autosize=1;strokeColor=#d79b00;fillColor=#ffe6cc;" vertex="1" parent="1">
          <mxGeometry x="307.5" y="3606" width="219" height="58" as="geometry" />
        </mxCell>
        <mxCell id="pabbp7h-cFKbLiE3yUMI-121" value="&lt;h3&gt;&lt;strong data-start=&quot;2610&quot; data-end=&quot;2636&quot;&gt;7.0 Feedback &amp;amp; Reviews&lt;/strong&gt;&lt;/h3&gt;" style="text;html=1;align=center;verticalAlign=middle;resizable=0;points=[];autosize=1;strokeColor=#d79b00;fillColor=#ffe6cc;fontFamily=Verdana;" vertex="1" parent="1">
          <mxGeometry x="1094" y="2733" width="210" height="57" as="geometry" />
        </mxCell>
        <mxCell id="pabbp7h-cFKbLiE3yUMI-122" value="&lt;h3&gt;&lt;strong data-end=&quot;2419&quot; data-start=&quot;2393&quot;&gt;6.0 Billing &amp;amp; Payments&lt;/strong&gt;&lt;/h3&gt;" style="text;html=1;align=center;verticalAlign=middle;resizable=0;points=[];autosize=1;strokeColor=#d79b00;fillColor=#ffe6cc;" vertex="1" parent="1">
          <mxGeometry x="310.5" y="2733" width="192" height="58" as="geometry" />
        </mxCell>
        <mxCell id="pabbp7h-cFKbLiE3yUMI-123" value="&lt;h3&gt;5.0 Inventory Management&lt;/h3&gt;" style="text;html=1;align=center;verticalAlign=middle;resizable=0;points=[];autosize=1;strokeColor=#d79b00;fillColor=#ffe6cc;fontFamily=Verdana;" vertex="1" parent="1">
          <mxGeometry x="-463.5" y="2733" width="233" height="57" as="geometry" />
        </mxCell>
      </root>
    </mxGraphModel>
  </diagram>
</mxfile>
